# xmcd CD database file
#
# Track frame offsets:
#	151
#	21320
#	38354
#	52019
#	70676
#	90379
#	102977
#	121940
#	134645
#	151868
#	167003
#	182298
#	194789
#	209726
#
# Disc length: 2997 seconds
#
# Revision: 0
# Processed by: cddbd v1.5.2PL0 Copyright (c) Steve Scherf et al.
# Submitted via: CDex 1.70beta2
#
DISCID=be0bb30e
DTITLE=Panflute Mood Vol. 1 Disc - 1 - Panflute Mood Vol. 1 Disc - 1
DYEAR=2008
DGENRE=Salsa
TTITLE0=My Hheart Will Go On
TTITLE1=Love Is All Around
TTITLE2=Colours Of The Wind
TTITLE3=Beauty And The Beast
TTITLE4=I Will Always Love You
TTITLE5=Unchained Melody
TTITLE6=Take My Breath Away
TTITLE7=Can You Feel The Love Tonight
TTITLE8=(Everything I Do) I Do It For You
TTITLE9=It Must Have Been Love
TTITLE10=When a Man Loves a Woman
TTITLE11=Streets Of Philadelphia
TTITLE12=The Wind Beneath My Wings
TTITLE13=A Groovy Kind Of Love
EXTD=YEAR: 2008
EXTT0=
EXTT1=
EXTT2=
EXTT3=
EXTT4=
EXTT5=
EXTT6=
EXTT7=
EXTT8=
EXTT9=
EXTT10=
EXTT11=
EXTT12=
EXTT13=
PLAYORDER=
